<svg width="352" height="156" viewBox="0 0 352 156" fill="none" xmlns="http://www.w3.org/2000/svg">
<g clip-path="url(#clip0_55_46)">
<path d="M115.375 103.718H92.9661L89.56 114.026H71.095L94.1314 50.833H114.389L137.336 114.026H118.781L115.375 103.718ZM110.983 90.2728L104.171 69.8358L97.4479 90.2728H110.983ZM193.617 50.833C200.25 50.833 206.046 52.1776 211.006 54.8667C216.026 57.496 219.88 61.2009 222.569 65.9815C225.258 70.7621 226.603 76.2298 226.603 82.3848C226.603 88.4801 225.228 93.918 222.479 98.6985C219.79 103.479 215.936 107.244 210.916 109.993C205.956 112.682 200.19 114.026 193.617 114.026H168.608V50.833H193.617ZM192.272 98.5193C197.411 98.5193 201.445 97.115 204.373 94.3064C207.301 91.4978 208.765 87.5239 208.765 82.3848C208.765 77.186 207.301 73.1822 204.373 70.3736C201.445 67.5053 197.411 66.0711 192.272 66.0711H186.177V98.5193H192.272ZM277.637 50.833V114.026H260.068V50.833H277.637Z" fill="black"/>
<path d="M241.333 8H19.2045C13.0164 8 8 13.0164 8 19.2045V44.8421M265.6 8H332.796C338.984 8 344 13.0164 344 19.2045V136.796C344 142.984 338.984 148 332.796 148H257.418C256.653 148 255.889 147.922 255.139 147.766L224.303 141.359C222.024 140.886 219.655 141.134 217.523 142.069L206.151 147.056C204.733 147.679 203.2 148 201.651 148H46.2953C44.45 148 42.6452 147.46 41.1036 146.445L36.7227 143.563C34.3474 142.001 31.141 142.853 29.8559 145.39V145.39C29.0446 146.991 27.402 148 25.607 148H19.2045C13.0164 148 8 142.984 8 136.796V68.7895" stroke="black" stroke-width="14.1923" stroke-linecap="round" stroke-linejoin="round"/>
</g>
<defs>
<clipPath id="clip0_55_46">
<rect width="352" height="156" fill="white"/>
</clipPath>
</defs>
</svg>
