<svg width="808" height="158" viewBox="0 0 808 158" fill="none" xmlns="http://www.w3.org/2000/svg">
<path d="M440.074 81.2009C443.719 81.9777 446.647 83.8003 448.858 86.6686C451.069 89.4772 452.174 92.7041 452.174 96.3493C452.174 101.608 450.322 105.791 446.617 108.898C442.972 111.946 437.862 113.47 431.289 113.47H401.978V50.5454H430.303C436.697 50.5454 441.687 52.0095 445.272 54.9376C448.918 57.8657 450.74 61.8395 450.74 66.8591C450.74 70.5641 449.754 73.6416 447.782 76.0916C445.87 78.5417 443.3 80.2447 440.074 81.2009ZM417.306 76.002H427.345C429.855 76.002 431.767 75.4642 433.082 74.3885C434.456 73.2532 435.144 71.6098 435.144 69.4586C435.144 67.3073 434.456 65.664 433.082 64.5286C431.767 63.3932 429.855 62.8255 427.345 62.8255H417.306V76.002ZM428.6 101.1C431.17 101.1 433.142 100.532 434.516 99.3969C435.95 98.2018 436.667 96.4987 436.667 94.2877C436.667 92.0767 435.92 90.3437 434.426 89.0888C432.992 87.8339 430.99 87.2065 428.421 87.2065H417.306V101.1H428.6ZM509.288 113.47L496.202 89.7163H492.527V113.47H477.199V50.5454H502.924C507.884 50.5454 512.097 51.4119 515.563 53.1449C519.089 54.8778 521.718 57.2681 523.451 60.3157C525.184 63.3036 526.05 66.65 526.05 70.3549C526.05 74.5379 524.855 78.2728 522.465 81.5594C520.134 84.846 516.668 87.1766 512.067 88.551L526.588 113.47H509.288ZM492.527 78.8703H502.028C504.836 78.8703 506.928 78.1831 508.302 76.8087C509.737 75.4343 510.454 73.4922 510.454 70.9824C510.454 68.5921 509.737 66.7097 508.302 65.3353C506.928 63.9609 504.836 63.2737 502.028 63.2737H492.527V78.8703ZM567.134 50.5454V113.47H551.807V50.5454H567.134ZM591.777 81.9179C591.777 75.7032 593.122 70.1757 595.811 65.3353C598.5 60.4352 602.235 56.6407 607.015 53.9516C611.856 51.2028 617.323 49.8283 623.419 49.8283C630.888 49.8283 637.282 51.8003 642.601 55.7443C647.919 59.6883 651.475 65.0664 653.267 71.8787H636.416C635.161 69.2494 633.368 67.2476 631.038 65.8731C628.767 64.4987 626.167 63.8115 623.239 63.8115C618.518 63.8115 614.694 65.4548 611.766 68.7415C608.838 72.0281 607.374 76.4203 607.374 81.9179C607.374 87.4156 608.838 91.8078 611.766 95.0944C614.694 98.381 618.518 100.024 623.239 100.024C626.167 100.024 628.767 99.3372 631.038 97.9627C633.368 96.5883 635.161 94.5865 636.416 91.9571H653.267C651.475 98.7695 647.919 104.148 642.601 108.092C637.282 111.976 630.888 113.918 623.419 113.918C617.323 113.918 611.856 112.573 607.015 109.884C602.235 107.135 598.5 103.341 595.811 98.5006C593.122 93.6602 591.777 88.1327 591.777 81.9179ZM715.27 113.47L694.116 85.6826V113.47H678.788V50.5454H694.116V78.1532L715.091 50.5454H733.107L708.727 81.3801L734.004 113.47H715.27ZM780.19 114.097C775.589 114.097 771.465 113.35 767.82 111.856C764.175 110.362 761.247 108.151 759.036 105.223C756.885 102.295 755.749 98.7695 755.63 94.6462H771.944C772.183 96.9767 772.989 98.7695 774.364 100.024C775.738 101.22 777.531 101.817 779.742 101.817C782.013 101.817 783.805 101.309 785.12 100.293C786.435 99.2176 787.092 97.7536 787.092 95.9011C787.092 94.3474 786.554 93.0627 785.479 92.0468C784.463 91.0309 783.178 90.1943 781.624 89.537C780.13 88.8797 777.979 88.1327 775.17 87.2961C771.107 86.0412 767.79 84.7863 765.221 83.5314C762.651 82.2765 760.44 80.424 758.588 77.974C756.735 75.5239 755.809 72.3269 755.809 68.3829C755.809 62.5267 757.93 57.9553 762.173 54.6687C766.416 51.3223 771.944 49.6491 778.756 49.6491C785.688 49.6491 791.275 51.3223 795.518 54.6687C799.761 57.9553 802.031 62.5566 802.33 68.4726H785.747C785.628 66.4408 784.881 64.8573 783.507 63.7219C782.132 62.5267 780.369 61.9292 778.218 61.9292C776.366 61.9292 774.872 62.4371 773.736 63.453C772.601 64.4091 772.033 65.8134 772.033 67.6659C772.033 69.6976 772.989 71.2812 774.902 72.4166C776.814 73.5519 779.802 74.777 783.865 76.0916C787.929 77.466 791.215 78.7807 793.725 80.0356C796.295 81.2905 798.506 83.1131 800.358 85.5034C802.211 87.8937 803.137 90.9712 803.137 94.7359C803.137 98.3213 802.211 101.578 800.358 104.506C798.565 107.434 795.936 109.765 792.47 111.498C789.004 113.231 784.911 114.097 780.19 114.097Z" fill="white"/>
<path d="M114.942 99.4267H92.5332L89.127 109.735H70.662L93.6984 46.5416H113.956L136.903 109.735H118.348L114.942 99.4267ZM110.55 85.9813L103.738 65.5444L97.0149 85.9813H110.55ZM193.184 46.5416C199.817 46.5416 205.613 47.8861 210.573 50.5752C215.593 53.2045 219.447 56.9095 222.136 61.69C224.825 66.4706 226.17 71.9384 226.17 78.0934C226.17 84.1886 224.795 89.6265 222.046 94.4071C219.357 99.1877 215.503 102.952 210.483 105.701C205.523 108.39 199.757 109.735 193.184 109.735H168.175V46.5416H193.184ZM191.839 94.2278C196.978 94.2278 201.012 92.8235 203.94 90.0149C206.868 87.2064 208.332 83.2325 208.332 78.0934C208.332 72.8945 206.868 68.8908 203.94 66.0822C201.012 63.2138 196.978 61.7797 191.839 61.7797H185.744V94.2278H191.839ZM277.204 46.5416V109.735H259.635V46.5416H277.204Z" fill="white"/>
<path d="M241.426 8H19.2045C13.0164 8 8 13.0164 8 19.2045V45.3482M265.703 8H332.93C339.118 8 344.134 13.0164 344.134 19.2045V138.719C344.134 144.907 339.118 149.923 332.93 149.923H257.532C256.757 149.923 255.983 149.843 255.224 149.683L224.432 143.2C222.126 142.715 219.726 142.969 217.573 143.926L206.251 148.958C204.818 149.594 203.268 149.923 201.7 149.923H46.321C44.469 149.923 42.6586 149.375 41.1177 148.348L36.7722 145.451C34.3849 143.859 31.143 144.72 29.8599 147.287V147.287C29.0519 148.902 27.4003 149.923 25.5935 149.923H19.2045C13.0164 149.923 8 144.907 8 138.719V69.6246" stroke="white" stroke-width="14.1923" stroke-linecap="round" stroke-linejoin="round"/>
</svg>
