<svg width="86" height="62" viewBox="0 0 86 62" fill="none" xmlns="http://www.w3.org/2000/svg">
<path fill-rule="evenodd" clip-rule="evenodd" d="M5.80501 0.899925C4.39111 1.25373 3.33271 1.85791 2.26658 2.92001C1.16855 4.01402 0.504756 5.21868 0.198972 6.67271C-0.068358 7.94353 -0.0653354 53.8517 0.202162 55.1014C0.817256 57.9754 3.16915 60.3288 6.02314 60.9264C7.28976 61.1917 78.7162 61.1907 79.9758 60.9254C82.8254 60.3252 85.2052 57.946 85.8008 55.1014C86.0673 53.8286 86.0634 7.91902 85.7968 6.67271C85.1778 3.78044 82.8521 1.45339 79.9758 0.848541C78.6181 0.562908 6.95325 0.612613 5.80501 0.899925ZM61.0506 21.998C52.0922 30.9624 44.5586 38.4055 44.3092 38.5382C44.0597 38.6709 43.4705 38.7793 42.9995 38.7793C42.5284 38.7793 41.9392 38.6709 41.6897 38.5382C41.4403 38.4055 33.9067 30.9624 24.9483 21.998L8.66033 5.69893H42.9995H77.3386L61.0506 21.998ZM15.9221 41.7598L5.04936 52.6325V30.8871V9.14165L15.9221 20.0143L26.7948 30.8871L15.9221 41.7598ZM80.9495 30.9289V52.6325L70.077 41.7599L59.2045 30.8874L70.0345 20.0563C75.991 14.0992 80.8837 9.22527 80.9071 9.22527C80.9304 9.22527 80.9495 18.9919 80.9495 30.9289ZM34.2546 38.4987C37.8649 42.0711 38.3313 42.4743 39.5483 43.0746L40.883 43.733H42.9907C45.0818 43.733 45.1089 43.728 46.4242 43.0999C47.6524 42.5136 48.0453 42.174 51.7611 38.4876L55.772 34.5081L66.5554 45.2916L77.3389 56.0752H42.9998H8.66067L19.4066 45.3282C25.3169 39.4174 30.1848 34.5813 30.224 34.5813C30.2633 34.5813 32.077 36.3441 34.2546 38.4987Z" fill="black"/>
</svg>
