<svg width="68" height="73" viewBox="0 0 68 73" fill="none" xmlns="http://www.w3.org/2000/svg">
<path fill-rule="evenodd" clip-rule="evenodd" d="M48.9816 0.0386813C48.8653 0.0667344 48.2944 0.166542 47.7129 0.26071C45.466 0.624273 42.9849 1.65914 40.9463 3.08294C39.6041 4.02025 37.6909 5.96114 36.8141 7.2747L36.1354 8.29124L21.8007 8.29237C13.5958 8.29293 6.96426 8.35101 6.29281 8.42826C4.74186 8.60659 3.37416 9.25604 2.33338 10.3087C1.37915 11.2736 0.980904 11.9201 0.623685 13.0842C0.346255 13.9879 0.342871 14.3688 0.379806 40.5735L0.417304 67.1464L0.924516 68.2037C1.83617 70.1039 3.354 71.3925 5.26937 71.8925C6.12943 72.1171 8.08385 72.1352 32.0935 72.1427C50.4349 72.1485 58.2079 72.1056 58.7369 71.9955C61.2524 71.4725 63.3871 69.3378 63.9101 66.8223C64.019 66.2992 64.0655 60.2204 64.0655 46.5422V27.009L64.7541 25.8617C66.699 22.6216 67.3408 20.4144 67.3634 16.8904C67.3831 13.8102 66.9537 11.9286 65.6103 9.20755C63.376 4.68211 59.132 1.42484 54.0178 0.310613C53.0945 0.109449 49.4961 -0.0848089 48.9816 0.0386813ZM54.268 3.84587C58.971 5.23852 62.3967 8.76363 63.6571 13.5071C64.1107 15.2144 64.1171 18.1237 63.6711 19.904C63.1929 21.8123 62.5778 22.9677 58.7093 29.2254C54.0044 36.8359 52.747 39.1128 51.2912 42.6576C51.0136 43.3334 50.739 43.9368 50.681 43.9985C50.6231 44.0603 50.4606 43.8065 50.32 43.4346C49.7956 42.0475 48.3721 39.0342 47.4033 37.2607C46.8529 36.2527 44.7568 32.7668 42.7455 29.5142C38.6935 22.9611 38.2985 22.2452 37.7473 20.4553C37.3944 19.3092 37.3658 19.0318 37.3658 16.7495C37.3658 14.4672 37.3944 14.1897 37.7473 13.0436C39.2424 8.18791 42.9797 4.70481 47.8539 3.62413C49.6314 3.23011 52.5265 3.3302 54.268 3.84587ZM49.6796 10.1325C47.3823 10.4705 45.4798 11.9143 44.5196 14.0485C42.377 18.8107 46.4657 24.1685 51.6357 23.3733C54.9152 22.8689 57.2989 20.0809 57.2989 16.7495C57.2989 12.6369 53.729 9.53657 49.6796 10.1325ZM34.6027 11.7361C34.6027 11.77 34.4713 12.325 34.3106 12.9696C33.8929 14.6453 33.7928 17.6641 34.0966 19.4279C34.5831 22.2538 35.2859 23.8596 37.8252 27.947C38.689 29.3374 39.3957 30.5112 39.3957 30.5553C39.3957 30.5994 31.3758 38.6552 21.5737 48.457L3.75196 66.2783L3.66512 65.7961C3.61734 65.5308 3.59661 53.8318 3.61903 39.7982L3.65963 14.2825L3.9895 13.6127C4.17093 13.2444 4.55155 12.7506 4.83532 12.5156C5.85961 11.6671 5.32759 11.6951 20.6113 11.6844C28.3066 11.6789 34.6027 11.7022 34.6027 11.7361ZM52.3317 13.874C54.5465 15.1719 54.5099 18.3457 52.2651 19.6652C51.3853 20.1824 50.0695 20.2162 49.1729 19.7448C46.4078 18.2906 46.8065 14.4751 49.8266 13.4901C50.421 13.2963 51.6733 13.4881 52.3317 13.874ZM17.5452 16.9604C14.6195 17.5492 12.19 19.1678 10.5639 21.6118C5.92629 28.5818 10.4469 37.8487 18.8257 38.5473C21.9295 38.8061 25.3629 37.4661 27.5293 35.1502C29.4182 33.131 30.358 30.7567 30.5443 27.5337L30.585 26.8289L24.6995 26.7921L18.814 26.7553V28.4485V30.1417H22.7611C24.9321 30.1417 26.7083 30.1752 26.7083 30.2162C26.7083 30.5702 25.6636 32.2058 24.9882 32.9092C22.024 35.996 17.0696 35.9766 14.1604 32.8665C11.2899 29.798 11.3486 25.3567 14.2991 22.3748C16.6322 20.0167 20.1856 19.467 23.0895 21.0147C24.0593 21.5316 25.287 22.6016 25.7267 23.3129C25.8915 23.5798 26.0906 23.798 26.1691 23.798C26.4406 23.798 28.9576 22.3171 28.9607 22.1556C28.966 21.8835 27.733 20.3366 26.915 19.589C24.4502 17.3363 20.7856 16.3082 17.5452 16.9604ZM60.4599 66.6233C59.952 67.9694 58.754 68.7638 57.2281 68.7662L56.382 68.7676L43.8004 56.1854L31.2189 43.6034L36.2629 38.5609L41.3066 33.5185L42.6911 35.8125C44.4074 38.6566 46.4349 42.7078 47.5116 45.4443C47.9606 46.5859 48.8489 49.1366 49.4855 51.1125L50.643 54.7051L51.9277 50.776C52.6343 48.6149 53.5323 46.0537 53.9232 45.0846C55.0389 42.3186 56.842 38.7624 58.5692 35.9215C59.4411 34.4871 60.2575 33.1411 60.3832 32.9304C60.5949 32.5752 60.6145 33.7767 60.6499 49.2829C60.6845 64.4212 60.6663 66.0763 60.4599 66.6233ZM40.2415 57.4195L51.5889 68.7676H28.9283C16.4648 68.7676 6.26758 68.7202 6.26758 68.6622C6.26758 68.5467 28.7076 46.0713 28.8229 46.0713C28.8621 46.0713 34.0004 51.178 40.2415 57.4195Z" fill="black"/>
</svg>
