<svg width="70" height="70" viewBox="0 0 70 70" fill="none" xmlns="http://www.w3.org/2000/svg">
<path fill-rule="evenodd" clip-rule="evenodd" d="M32.7719 0.733875C32.5125 0.764329 31.7242 0.851647 31.0201 0.928051C26.5743 1.41046 21.651 3.07868 17.6783 5.44909C12.6221 8.46577 8.51262 12.5753 5.49594 17.6314C3.14494 21.5717 1.58344 26.1507 0.946337 30.9733C0.728174 32.6244 0.728174 37.6767 0.946337 39.3278C1.58344 44.1505 3.14494 48.7294 5.49594 52.6697C8.51262 57.7258 12.6221 61.8353 17.6783 64.852C21.6185 67.203 26.1975 68.7645 31.0201 69.4016C32.6712 69.6198 37.7236 69.6198 39.3747 69.4016C47.7654 68.293 54.8777 64.6077 60.6822 58.3612C63.8935 54.9054 66.4058 50.6069 67.9476 45.9307C69.1629 42.2445 69.6177 39.3094 69.6177 35.1506C69.6177 32.0739 69.4878 30.7147 68.9356 28.0087C67.0421 18.731 61.0812 10.4399 52.7165 5.44909C48.8164 3.12207 44.1656 1.52756 39.5094 0.92091C38.3277 0.767024 33.6073 0.635911 32.7719 0.733875ZM39.9811 5.08984C43.202 5.6279 45.5804 6.3844 48.4704 7.79039C52.3368 9.67125 55.7621 12.3211 58.4059 15.4769C65.4217 23.8511 67.4816 35.0459 63.8982 45.3243C62.8362 48.3703 60.6613 52.132 58.4059 54.8242C53.3999 60.7994 45.8145 64.7483 37.9598 65.4682C29.9029 66.2067 21.8421 63.6525 15.5237 58.359C9.54859 53.353 5.5997 45.7676 4.87973 37.913C4.14129 29.856 6.6955 21.7952 11.9889 15.4769C15.9883 10.7032 21.8542 7.06705 27.9316 5.59422C29.275 5.26879 31.4818 4.89728 32.7719 4.77965C34.2222 4.64732 38.4104 4.82748 39.9811 5.08984ZM23.3641 14.6093C22.1131 14.9461 21.4489 15.4525 18.8874 18.0231C16.5889 20.3298 16.3448 20.6215 15.83 21.6754C15.0835 23.2038 14.8493 24.1391 14.7551 25.9689C14.177 37.1959 27.5939 52.5178 40.4527 55.3151C42.0228 55.6566 45.397 55.66 46.6513 55.3212C47.8656 54.9932 49.0772 54.4048 49.989 53.7001C51.3883 52.6188 54.9006 48.9058 55.3195 48.0648C55.8668 46.9666 56.0449 45.7649 55.8386 44.5623C55.5532 42.8981 55.1023 42.2436 52.3165 39.4499C50.235 37.3625 49.6709 36.8725 48.9368 36.5145C47.6853 35.9042 46.5107 35.7452 45.2112 36.0103C43.858 36.2862 43.0415 36.8 41.5055 38.3425L40.2539 39.5994L35.5077 34.8545L30.7615 30.1098L32.138 28.6887C33.679 27.0977 34.1683 26.2729 34.3816 24.9072C34.5623 23.7501 34.3696 22.5372 33.8252 21.4059C33.4734 20.6749 32.9891 20.1149 30.898 18.0207C28.9382 16.0579 28.2163 15.4231 27.584 15.1067C26.1774 14.4029 24.7546 14.2351 23.3641 14.6093ZM25.4529 18.5828C25.6615 18.6604 26.8187 19.7064 28.0243 20.9072C31.1876 24.0573 31.186 24.0148 28.2517 26.9307C27.1701 28.0054 26.1986 29.0483 26.0925 29.2484C25.842 29.7209 25.8467 30.4844 26.1034 31.0251C26.2156 31.2615 29.2019 34.3434 32.7399 37.874C38.3817 43.5041 39.2347 44.3046 39.6779 44.3857C40.7905 44.5896 41.0243 44.4483 43.3454 42.1675C45.5817 39.9698 45.8432 39.7992 46.7186 39.9664C47.2748 40.0725 51.5663 44.2972 51.7819 44.9509C52.087 45.8751 51.9311 46.1202 49.5138 48.5145C48.2729 49.7436 47.073 50.8426 46.8475 50.9567C43.8381 52.4788 38.4225 51.2002 33.1088 47.7133C24.7545 42.2311 18.4551 32.7584 18.7954 26.1896C18.9116 23.9461 19.0954 23.6086 21.5742 21.0856C24.2296 18.3829 24.481 18.2207 25.4529 18.5828Z" fill="black"/>
</svg>
