<svg width="65" height="66" viewBox="0 0 65 66" fill="none" xmlns="http://www.w3.org/2000/svg">
<path fill-rule="evenodd" clip-rule="evenodd" d="M29.2119 1.07866C14.3709 2.91263 2.70698 14.816 1.17109 29.6954C0.94349 31.9006 1.08134 36.076 1.4515 38.1835C2.0374 41.5206 3.00694 44.4566 4.51386 47.4567L5.27103 48.9645L3.01489 57.2046C1.77396 61.7367 0.778555 65.4594 0.802675 65.4774C0.826931 65.4952 4.6063 64.5166 9.20132 63.3027C15.8906 61.5356 17.623 61.1213 17.8928 61.2241C18.0781 61.2947 18.9573 61.6825 19.8467 62.0857C22.7352 63.3955 25.7686 64.2641 28.9604 64.6957C31.1787 64.9956 35.0718 64.9939 37.2296 64.6919C44.3122 63.7005 50.6402 60.5688 55.6276 55.5863C58.2357 52.9811 59.9699 50.598 61.621 47.351C63.1079 44.4268 64.1571 41.2391 64.7432 37.8639C65.0859 35.8911 65.0854 30.0944 64.7424 28.027C64.1628 24.5344 63.2684 21.744 61.74 18.6618C57.3907 9.89072 49.3588 3.63826 39.7554 1.54773C36.7617 0.896074 32.2971 0.69745 29.2119 1.07866ZM37.6338 6.65575C41.4993 7.3706 44.7046 8.66192 47.8749 10.7814C53.2873 14.4 57.2715 20.0192 58.8464 26.2549C60.0029 30.8343 59.912 36.0356 58.5984 40.439C56.4746 47.5587 51.4127 53.5517 44.7886 56.7889C40.9374 58.6708 37.3739 59.4914 33.0523 59.4914C28.0991 59.4914 23.7082 58.2896 19.2269 55.707L18.4723 55.2721L13.5131 56.5752C10.7855 57.2918 8.53308 57.8574 8.50775 57.8321C8.48242 57.8069 9.04204 55.6726 9.75137 53.0893C10.4606 50.506 11.0461 48.2974 11.0524 48.1814C11.0587 48.0652 10.71 47.3941 10.2774 46.6901C3.9223 36.347 5.58796 22.7068 14.2595 14.0803C18.573 9.78912 24.0339 7.15203 30.1551 6.40417C31.8084 6.20217 35.9308 6.34083 37.6338 6.65575ZM20.4729 18.4133C19.6936 18.7991 18.2697 20.4808 17.6743 21.7185C16.505 24.1497 16.5288 27.2143 17.7392 30.0521C19.2265 33.5392 23.1182 38.4906 26.9599 41.7834C29.6528 44.0914 31.9027 45.4439 35.2083 46.7411C38.585 48.0664 39.2328 48.2191 41.4742 48.2182C43.2372 48.2175 43.5169 48.1839 44.3366 47.8751C45.6844 47.3673 46.6903 46.7277 47.6925 45.7412C48.47 44.9756 48.6266 44.7362 48.8811 43.922C49.1986 42.9069 49.38 41.2733 49.2381 40.7078C49.1638 40.4121 48.7831 40.1722 46.8687 39.2137C43.3612 37.4575 41.9474 36.8532 41.3465 36.8532C40.8543 36.8532 40.7703 36.9136 40.1751 37.6954C38.8145 39.4826 37.5661 40.8667 37.2408 40.9483C36.8512 41.046 36.0857 40.7657 34.3176 39.8777C31.4549 38.4401 29.1194 36.5176 27.1115 33.946C26.0187 32.5464 25.0346 30.9515 25.0346 30.58C25.0346 30.4209 25.5413 29.6298 26.1606 28.8221C27.3743 27.2389 27.7296 26.6481 27.7296 26.2133C27.7296 26.0607 27.4664 25.3149 27.1448 24.556C26.8231 23.7969 26.1744 22.2361 25.7032 21.0873C25.1191 19.6636 24.709 18.8592 24.415 18.5607L23.9835 18.1228L22.5215 18.1229C21.2959 18.1229 20.9646 18.17 20.4729 18.4133Z" fill="black"/>
</svg>
